<?xml version="1.0" encoding="UTF-8" standalone="no"?>
<!-- Created with Inkscape (http://www.inkscape.org/) -->

<svg
   version="1.1"
   id="svg2"
   width="288.13333"
   height="208.26666"
   viewBox="0 0 288.13333 208.26666"
   sodipodi:docname="George_Brown_College.eps"
   xmlns:inkscape="http://www.inkscape.org/namespaces/inkscape"
   xmlns:sodipodi="http://sodipodi.sourceforge.net/DTD/sodipodi-0.dtd"
   xmlns="http://www.w3.org/2000/svg"
   xmlns:svg="http://www.w3.org/2000/svg">
  <defs
     id="defs6" />
  <sodipodi:namedview
     id="namedview4"
     pagecolor="#ffffff"
     bordercolor="#000000"
     borderopacity="0.25"
     inkscape:showpageshadow="2"
     inkscape:pageopacity="0.0"
     inkscape:pagecheckerboard="0"
     inkscape:deskcolor="#d1d1d1" />
  <g
     id="g8"
     inkscape:groupmode="layer"
     inkscape:label="ink_ext_XXXXXX"
     transform="matrix(1.3333333,0,0,-1.3333333,0,208.26667)">
    <g
       id="g10"
       transform="scale(0.1)">
      <path
         d="M 128.578,1235.91 C -125.426,488.73 1066.22,-222.469 1808.82,306.328 L 1000.54,641.707 H 964.418 L 1558.29,330.941 C 1004.12,2.33984 -57.0117,549.352 128.578,1235.91 Z M 2045.25,300.711 C 1327.17,-363.219 -7.61328,159.75 0.0351563,1018.66 4.55078,1521.2 600.551,1702.47 1181.65,1446.59 c -606.986,220.9 -993.974,4.65 -993.974,-341.99 0,-459.045 642.222,-899.381 1137.114,-752.768 L 917.398,641.707 H 1036.42 L 2045.25,300.711"
         style="fill:#231f20;fill-opacity:1;fill-rule:nonzero;stroke:none"
         id="path12" />
      <path
         d="m 1447.24,681.586 c -8.51,24.965 -29.28,27.48 -37.93,27.48 -30.68,0 -50.32,-22.453 -53.06,-51.347 -2.44,-24.664 7.06,-54.996 44.11,-54.996 8.41,0 29,2.851 43.24,27.484 0.41,0.719 -4.1,-25.891 -4.1,-25.891 -15.74,-8.418 -32.03,-11.472 -46.73,-11.472 -35.42,0 -64.57,24.277 -60.88,62.484 3.04,31.438 29.51,63.442 75.15,63.442 14.72,0 27.94,-2.879 41.29,-9.344 0,0 -0.75,-28.559 -1.09,-27.84"
         style="fill:#231f20;fill-opacity:1;fill-rule:nonzero;stroke:none"
         id="path14" />
      <path
         d="m 1493.75,658.773 c -3.73,-38.265 16.19,-55.687 36.84,-55.687 23.49,0 42.75,18.68 45.89,51.164 3.69,34.723 -12.11,55.176 -36.04,55.176 -23.71,0 -43.29,-18.86 -46.69,-50.653 z m 34.22,-65.929 c -36.05,0.515 -63.64,27.101 -59.4,63.953 3.54,31.07 31.36,62.508 74.44,61.973 30.67,-0.364 63.34,-22.665 58.93,-63.442 -4.78,-42.027 -41.48,-62.844 -73.97,-62.484"
         style="fill:#231f20;fill-opacity:1;fill-rule:nonzero;stroke:none"
         id="path16" />
      <path
         d="m 1660.57,708.734 -9.95,-103.851 c 3.54,-0.184 11.72,-0.926 19.8,-0.926 20,0.742 26.31,0.926 32.88,11.316 l -5.93,-20.632 h -75.63 c 3.19,1.593 5.42,4.156 5.83,8.082 l 10.19,106.011 c 0.41,4.106 -1.31,6.621 -4.29,8.055 h 32.52 c -2.96,-1.434 -5.03,-3.949 -5.42,-8.055"
         style="fill:#231f20;fill-opacity:1;fill-rule:nonzero;stroke:none"
         id="path18" />
      <path
         d="m 1763.28,708.734 -9.96,-103.851 c 3.51,-0.184 11.72,-0.926 19.78,-0.926 20.04,0.742 26.36,0.926 32.92,11.316 l -5.98,-20.632 h -75.62 c 3.23,1.593 5.42,4.156 5.85,8.082 l 10.21,106.011 c 0.34,4.106 -1.35,6.621 -4.3,8.055 h 32.56 c -3.03,-1.434 -5.05,-3.949 -5.46,-8.055"
         style="fill:#231f20;fill-opacity:1;fill-rule:nonzero;stroke:none"
         id="path20" />
      <path
         d="m 1910.08,700.984 c -2.9,4.668 -6.51,6.11 -13.29,6.465 -5.47,0.364 -30.56,0.364 -30.56,0.364 l -4.01,-41.321 h 27.15 c 2.52,0 5.86,2.875 6.96,5.004 l -1.85,-19.012 c -0.59,2.539 -3.38,5.235 -5.95,5.235 h -27.1 l -5.08,-52.836 c 3.52,-0.567 14.42,-1.262 23.24,-0.926 15.64,0.359 22.82,0 30.6,11.316 l -5.8,-20.632 h -77.25 c 3.24,1.797 5.73,3.769 6.19,8.082 l 10.19,106.011 c 0.41,4.106 -1.92,6.621 -4.65,8.055 h 72.24 l -1.03,-15.805"
         style="fill:#231f20;fill-opacity:1;fill-rule:nonzero;stroke:none"
         id="path22" />
      <path
         d="m 2050.56,709.426 -1.44,-28.559 c -6.83,24.406 -29.25,28.199 -37.72,28.199 -30.54,0 -50.32,-22.453 -53.12,-51.347 -2.37,-24.664 6.95,-54.996 44.17,-54.996 3.72,0 14.36,0.363 23.39,5.929 l 2.98,31.231 c 0.41,4.16 -1.15,6.648 -3.84,8.265 h 32.1 c -2.83,-1.617 -5.06,-4.105 -5.44,-8.265 l -2.57,-26.582 c -0.36,-3.571 1.31,-6.805 2.18,-7.34 -15.93,-8.449 -41.85,-13.117 -56.25,-13.117 -35.75,0 -65.02,24.277 -61.38,62.484 3.05,31.438 29.64,63.442 75.64,63.442 14.74,0 27.7,-3.258 41.3,-9.344"
         style="fill:#231f20;fill-opacity:1;fill-rule:nonzero;stroke:none"
         id="path24" />
      <path
         d="m 2160,700.984 c -2.99,4.668 -6.62,6.11 -13.39,6.465 -5.36,0.364 -30.54,0.364 -30.54,0.364 l -3.98,-41.321 h 27.1 c 2.57,0 5.9,2.875 7.01,5.004 l -1.82,-19.012 c -0.66,2.539 -3.5,5.235 -5.98,5.235 h -27.15 l -5.11,-52.836 c 3.57,-0.567 14.45,-1.262 23.3,-0.926 15.68,0.359 22.82,0 30.55,11.316 l -5.76,-20.632 h -77.26 c 3.28,1.797 5.72,3.769 6.15,8.082 l 10.26,106.011 c 0.39,4.106 -1.92,6.621 -4.66,8.055 h 72.29 L 2160,700.984"
         style="fill:#231f20;fill-opacity:1;fill-rule:nonzero;stroke:none"
         id="path26" />
      <path
         d="m 1055.95,1099.98 c -25.46,0 -47.29,9.21 -63.18,26.66 -20.274,22.27 -29.387,56.22 -25.606,95.59 6.668,70.49 52.416,119.71 111.236,119.71 25.51,0 47.55,-9.41 63.77,-27.23 20.33,-22.4 29.54,-55.86 25.9,-94.25 -6.62,-69.83 -53.77,-120.48 -112.12,-120.48 z m 133.63,221.9 c -26.41,29.02 -65.14,45.01 -109.1,45.01 -85.582,0 -158.738,-63.95 -166.492,-145.61 -3.691,-38.77 7.617,-74.7 31.797,-101.34 25.918,-28.46 64.335,-44.14 108.135,-44.14 87.95,0 160.21,62.06 168.04,144.38 3.64,38.62 -7.83,74.77 -32.38,101.7"
         style="fill:#231f20;fill-opacity:1;fill-rule:nonzero;stroke:none"
         id="path28" />
      <path
         d="m 1404.06,1178.61 c -8.99,26.48 -33.19,38.21 -51.28,43.49 7.03,1.29 11.83,2.54 20.61,5.26 28.62,9.58 47.37,32.75 50.17,62.13 0.23,2.37 0.33,4.67 0.33,6.96 0,19.37 -7.93,36.69 -22.3,48.19 -17.58,13.57 -33.9,17.71 -69.98,17.71 h -90.79 l -1.31,-6.99 c 11.88,-4.66 15.71,-11.03 13.19,-37.52 l -18.24,-192.28 c -2.39,-24.84 -6.94,-33.51 -20.26,-38.64 l 1.26,-6.99 h 78.86 l 1.31,6.99 c -7.26,2.77 -9.24,4.79 -10.64,7.97 -2.32,4.63 -3.47,11.43 -3.47,19.69 0,3.13 0.17,6.41 0.49,9.88 0,0 6.77,71.03 8.21,86.25 4.54,0 16.43,0 16.43,0 12.18,0 34.82,0 49.44,-36.85 l 16.45,-52.12 c 10.24,-31.9 16.92,-41.81 38.75,-41.81 h 38.42 l 1.77,7.11 c -8.47,2.26 -12.04,4.29 -15.81,9.24 -6.06,7.77 -11.98,21.04 -17.71,39.47 0.05,0 -5.92,18.79 -5.92,18.79 z m -101.57,161.26 c 4.98,0 22.3,0 22.3,0 7.7,0 26.87,-1.37 38.52,-14.2 6.62,-7.23 9.93,-17.27 9.93,-29.74 0,-2.36 -0.13,-4.82 -0.33,-7.41 -5.14,-53.82 -54.9,-56.54 -64.83,-56.54 0,0 -10.78,0 -15.86,0 0.7,7.11 9.7,101.93 10.27,107.89"
         style="fill:#231f20;fill-opacity:1;fill-rule:nonzero;stroke:none"
         id="path30" />
      <path
         d="m 1699.73,1206.73 c 1.54,15.91 5.55,22.4 18.02,28.9 l -1.67,6.82 h -68.52 l -1.46,-6.9 c 9.62,-4.41 13.65,-10.93 13.65,-23.05 0,-2.1 -0.13,-4.33 -0.38,-6.77 0,-0.02 -6.6,-75.24 -7.52,-85.22 -1.05,-0.6 -2.13,-1.13 -2.13,-1.13 -32.67,-15.81 -43.84,-19.04 -66.18,-19.04 -30.9,0 -56.54,10.21 -74.19,29.59 -19.74,21.73 -28.28,53.24 -24.69,91.07 6.52,68.7 55.99,120.51 115.01,120.51 46.15,0 83.74,-32.7 89.42,-77.71 l 7.17,0.21 4.76,72.37 -1.9,1.12 c -34.44,20.28 -64.42,28.98 -100.21,28.98 -87.71,0 -157.21,-61.23 -165.26,-145.61 -3.91,-41.26 6.67,-76.96 30.58,-103.21 24.77,-27.26 63.03,-42.24 107.76,-42.24 41.62,0 91.89,14.65 125,36.46 l 3.36,2.21 -2.57,3.11 c -3.64,4.31 -4.77,6.44 -4.77,10.6 0,1.17 0.1,2.51 0.23,4.08 0,0.02 6.47,74.69 6.49,74.85"
         style="fill:#231f20;fill-opacity:1;fill-rule:nonzero;stroke:none"
         id="path32" />
      <path
         d="m 848.422,1245.18 c 13.937,0 19.297,0.84 24.738,3.95 6.004,3.05 7.031,4.02 10.086,9.69 l 6.828,-0.82 -4.804,-49.78 -7.032,-0.83 c -1.925,5.63 -2.746,6.63 -8.156,9.68 -4.902,3.11 -10.059,3.98 -23.992,3.98 0,0 -38.117,0 -43.809,0 -0.566,-5.98 -10.363,-109.37 -11.035,-116.55 7.059,0 65.75,0 65.75,0 17.168,0 25.781,1.17 36.817,5.15 8.496,3.11 10.625,4.44 16.203,10.19 l 6.023,-3.59 -11.855,-36.32 H 726.605 l -1.335,6.96 c 13.574,5.57 17.89,13.75 20.242,37.85 0,0 8.418,89 9.113,96.31 -5.285,0 -17.727,0 -17.727,0 -13.601,0 -17.019,-9.8 -18.835,-29.13 l -7.012,-69.05 c -0.227,-2.62 -0.352,-4.78 -0.352,-6.62 0,-6.5 1.61,-9.14 5.379,-12.68 l 4.063,-3.52 c 0,0 -42.325,-20.4 -42.371,-20.4 -40.09,-16.42 -70.774,-23.43 -102.571,-23.43 -49.043,0 -89.687,16.19 -117.558,46.83 -28.36,31.13 -40.782,74.25 -36.024,124.62 9.649,100.98 87.528,174.33 185.274,174.33 38.386,0 72.578,-11.2 114.402,-37.34 l 1.848,-1.16 -4.953,-66.03 -7.032,-0.9 c -15.965,45.45 -60.254,78.48 -105.261,78.48 -67.063,0 -123.489,-61.77 -131.243,-143.71 -4.461,-46.8 7.364,-89.51 32.59,-117.2 19.559,-21.45 45.477,-32.79 74.988,-32.79 25.02,0 59.61,9.01 80.012,20.63 0.957,10.55 9.598,105.83 9.598,105.83 0.312,2.9 0.41,5.51 0.441,7.85 0,14.22 -4.953,18.97 -13.449,22.07 l 1.231,7 c 0,0 58,0.29 58,0.31 0,0 33.25,0 38.847,0 l 6.875,72.5 c 2.363,24.09 -0.43,32.26 -12.961,37.85 l 2.754,6.96 h 168.215 l -3.781,-39.45 -7.051,-0.61 c -2,7.36 -4.18,9.49 -8.055,11.41 -5.371,2.75 -14.836,4.52 -24.687,4.52 0,0 -58.867,0 -64.778,0 -0.566,-5.87 -8.183,-85.99 -8.828,-93.04 h 43.809"
         style="fill:#231f20;fill-opacity:1;fill-rule:nonzero;stroke:none"
         id="path34" />
      <path
         d="m 1773.38,1104.5 c 7.08,0 65.75,0 65.75,0 17.19,0 25.77,1.17 36.8,5.15 8.52,3.11 10.6,4.44 16.19,10.19 l 6.08,-3.59 -11.91,-36.32 h -177.53 l -1.38,6.96 c 13.57,5.57 17.89,13.75 20.22,37.85 l 18.37,192.8 c 2.35,24.09 -0.41,32.26 -12.93,37.85 l 2.73,6.96 h 168.08 l -3.7,-39.45 -7.08,-0.61 c -2.03,7.36 -4.18,9.49 -8.06,11.41 -5.36,2.75 -14.8,4.52 -24.68,4.52 0,0 -58.85,0 -64.78,0 l -8.85,-93.04 h 43.78 c 13.96,0 19.27,0.84 24.74,3.95 6.03,3.05 7.06,4.02 10.09,9.69 l 6.82,-0.82 -4.77,-49.78 -7.03,-0.83 c -1.91,5.63 -2.73,6.63 -8.19,9.68 -4.85,3.11 -10.06,3.98 -23.99,3.98 0,0 -38.06,0 -43.78,0 l -10.99,-116.55"
         style="fill:#231f20;fill-opacity:1;fill-rule:nonzero;stroke:none"
         id="path36" />
      <path
         d="m 985.941,1017.19 c 5.012,0 22.309,0 22.309,0 16.73,0 29.94,-4.74 38.15,-13.8 6.78,-7.421 10.29,-17.89 10.29,-30.492 0,-2.285 -0.12,-4.593 -0.33,-7.007 -3.31,-34.383 -28.74,-56.555 -64.821,-56.555 0,0 -10.781,0 -15.859,0 0.691,7.156 9.695,101.874 10.261,107.854 z M 1150.54,716.355 c -7.08,7.774 -14.73,21.016 -22.81,39.524 l -15.89,35.746 c -17.83,40.262 -40.29,87.836 -56.25,98.848 -5.72,3.976 -12.06,6.847 -19.14,9.007 6.95,1.309 11.75,2.563 20.37,5.258 28.64,9.547 47.4,32.774 50.18,62.129 0.19,2.313 0.35,4.621 0.35,6.953 0,19.375 -7.95,36.67 -22.35,48.17 -17.5,13.6 -33.82,17.73 -69.93,17.73 h -90.816 l -1.309,-7.03 c 11.934,-4.64 15.731,-11.01 13.243,-37.514 L 917.887,802.891 c -2.336,-24.817 -6.875,-33.543 -20.215,-38.649 l 1.308,-6.953 h 78.778 l 1.308,6.953 c -7.265,2.797 -9.207,4.824 -10.652,8.031 -2.277,4.567 -3.437,11.321 -3.41,19.582 0,3.079 0.156,6.415 0.488,9.93 0,0 6.719,71.133 8.184,86.328 4.113,0 12.394,0 12.394,0 10.008,0 14.61,-1.133 19.69,-4.75 9.11,-6.722 10.88,-9.035 21.37,-33.925 0.13,-0.231 37.86,-80.09 37.86,-80.09 -0.08,0.207 3.1,-7.032 3.1,-7.032 l 9.03,-20.476 c 14.37,-31.899 22.36,-41.832 44.16,-41.832 h 45.38 l 0.86,7.133 c -8.77,2.261 -12.61,4.289 -16.98,9.214"
         style="fill:#231f20;fill-opacity:1;fill-rule:nonzero;stroke:none"
         id="path38" />
      <path
         d="m 1252.37,777.305 c -25.51,0 -47.35,9.211 -63.2,26.687 -17.3,18.988 -26.49,46.5 -26.47,78.676 0,5.469 0.26,11.168 0.85,16.941 6.73,70.465 52.4,119.691 111.22,119.691 25.56,0 47.6,-9.45 63.8,-27.257 20.37,-22.375 29.58,-55.84 25.92,-94.258 -6.62,-69.797 -53.79,-120.48 -112.12,-120.48 z m 133.62,221.945 c -26.41,29.02 -65.14,45.02 -109.09,45.02 -85.64,0 -158.72,-63.977 -166.52,-145.637 -3.65,-38.75 7.62,-74.727 31.82,-101.317 25.87,-28.48 64.26,-44.132 108.14,-44.132 87.97,0 160.23,61.996 168.06,144.343 3.62,38.625 -7.85,74.754 -32.41,101.723"
         style="fill:#231f20;fill-opacity:1;fill-rule:nonzero;stroke:none"
         id="path40" />
      <path
         d="m 770.512,723.332 c 28.664,0 45.957,2.879 63.867,10.602 12.754,5.492 24.133,13.371 33.879,23.507 15.039,15.707 22.918,32.387 24.793,52.504 0.226,2.774 0.351,5.469 0.351,8.16 0,35.848 -22.91,64.926 -60.195,75.317 -5.75,1.621 -10.418,2.723 -15.223,3.648 7.11,1.899 13.602,4.641 21.532,9.106 22.382,12.5 38.879,36.187 41.066,58.894 0.145,1.875 0.223,3.7 0.223,5.52 0,30.87 -24.629,57.94 -60.664,65.64 -12.012,2.88 -22.45,3.77 -42.911,3.77 H 676.949 l -0.898,-7.11 c 8.574,-2.28 13.191,-6.77 13.191,-23.22 0,-3.67 -0.234,-7.95 -0.691,-12.959 L 666.402,766.629 c -0.488,-5.004 -1.132,-9.293 -1.828,-12.988 -3.152,-16.422 -8.64,-20.938 -17.656,-23.2 l -0.457,-7.109 z M 730.66,882.598 c 5.488,0 36.309,0 36.309,0 28.152,0 50.195,-7.93 63.847,-22.922 9.364,-10.367 14.266,-23.813 14.266,-39.207 0,-2.469 -0.125,-4.879 -0.352,-7.371 -3.828,-40.235 -35.625,-65.203 -82.968,-65.203 0,0 -37.266,0 -43.934,0 0.692,7.261 12.266,128.617 12.832,134.703 z m 97.996,77.39 c -2.996,-31.332 -29.843,-53.246 -65.351,-53.246 0,0 -28.387,0 -34.825,0 0.696,7.156 9.747,102.718 10.344,108.728 5.489,0 35.098,0 35.098,0 17.48,0 32.644,-6.11 42.734,-17.165 7.977,-8.828 12.235,-20.325 12.235,-32.926 0,-1.774 -0.047,-3.594 -0.235,-5.391"
         style="fill:#231f20;fill-opacity:1;fill-rule:nonzero;stroke:none"
         id="path42" />
      <path
         d="m 1574.35,1012.21 c -1.9,7.21 -0.11,18.35 17.14,18.35 17.27,0 21.04,-8.52 17.17,-17.42 -3.21,-7.5 -21.56,-45.167 -21.56,-45.167 0,0 -10.85,36.997 -12.75,44.237 z m 443.93,27.51 h -59.39 l -1.48,-6.95 c 7.82,-3.47 9.95,-5.85 11.46,-9.63 1.72,-3.92 2.7,-11.26 2.7,-19.24 0,-3.03 -0.15,-6.134 -0.38,-9.134 0,0 -10.91,-114.684 -14.17,-148.223 -10.36,13.957 -143.22,193.177 -143.22,193.177 h -123.31 l -1.87,-10.08 c 10.55,-2.05 12.29,-6.44 11.73,-12.5 -0.26,-2.69 -0.98,-5 -4.52,-12.32 0,-0.08 -55.07,-119.172 -73.16,-158.382 -5.52,18.605 -23.9,80.578 -24.84,83.785 1.84,3.593 34.85,67.902 34.85,67.902 9.29,17.915 18.15,28.075 27.87,31.795 l -0.97,9.8 -149.77,-0.38 -3.31,-9.6 c 10.62,-5.93 16.32,-14.42 21.76,-32.619 0,0 23.71,-78.777 27.54,-91.508 -1.6,-3.105 -25.31,-49.66 -33.6,-65.953 -6.29,20.043 -52.32,166.7 -52.32,166.7 -2.34,7.91 -3,10.32 -2.7,13.34 0.36,3.62 1.77,7.58 9.84,9.63 l -0.29,10.01 h -72.72 l -3.7,-9.34 0.87,-0.7 2.06,-1.44 c 4.07,-2.72 6.7,-5.02 7.49,-5.9 1.67,-1.56 3.97,-5.51 7.11,-12.05 0,-0.03 1.35,-2.96 1.35,-2.96 l 4.06,-9.907 79.48,-253.512 c 0,0 54.14,106.039 63.97,125.18 5.7,-19.273 37.54,-126.563 37.54,-126.563 l 117.89,255.461 c 10.71,23.071 18.92,32.031 30.59,32.031 11.68,0 17.66,-7.01 15.07,-34.464 l -18.43,-193.52 c -2.3,-24.715 -5.64,-30.668 -21.02,-37.492 l 1.44,-6.875 h 56.05 l 1.54,6.875 c -6.7,3.106 -8.6,5.133 -10.55,8.727 -1.77,3.593 -2.66,6.312 -2.66,12.445 0,3.926 0.38,9.187 1.1,16.906 0,0 15.78,166.321 17.39,183.258 C 1803.2,971.359 1973,742.504 1973,742.504 l 23.93,252 c 2.59,27.716 7.62,33.596 22.4,38.136 l -1.05,7.08"
         style="fill:#231f20;fill-opacity:1;fill-rule:nonzero;stroke:none"
         id="path44" />
    </g>
  </g>
</svg>
