<?xml version="1.0" encoding="iso-8859-1"?>
<!-- Uploaded to: SVG Repo, www.svgrepo.com, Generator: SVG Repo Mixer Tools -->
<svg fill="#000000" height="800px" width="800px" version="1.1" id="Layer_1" xmlns="http://www.w3.org/2000/svg" xmlns:xlink="http://www.w3.org/1999/xlink" 
	 viewBox="0 0 512 512" xml:space="preserve">
<g>
	<g>
		<g>
			<path d="M503.467,29.864H8.533C3.814,29.864,0,33.678,0,38.397v375.467c0,4.719,3.814,8.533,8.533,8.533H358.4v51.2
				c0,3.447,2.074,6.571,5.265,7.885c3.191,1.331,6.861,0.589,9.301-1.852l28.1-28.1l28.1,28.1c1.63,1.63,3.814,2.5,6.033,2.5
				c1.101,0,2.21-0.205,3.268-0.649c3.191-1.314,5.265-4.437,5.265-7.885v-51.2h59.733c4.719,0,8.533-3.814,8.533-8.533V38.397
				C512,33.678,508.186,29.864,503.467,29.864z M366.933,311.464c0,4.719-3.814,8.533-8.533,8.533s-8.533-3.814-8.533-8.533
				c0-28.237,22.963-51.2,51.2-51.2c4.719,0,8.533,3.814,8.533,8.533s-3.814,8.533-8.533,8.533
				C382.242,277.331,366.933,292.639,366.933,311.464z M426.667,413.864v39.134L407.1,433.431c-1.664-1.664-3.849-2.5-6.033-2.5
				c-2.185,0-4.369,0.836-6.033,2.5l-19.567,19.567v-39.134v-21.001c0.913,0.282,1.852,0.486,2.773,0.742
				c1.485,0.41,2.97,0.819,4.471,1.152c1.015,0.222,2.039,0.401,3.063,0.589c1.596,0.299,3.2,0.538,4.804,0.742
				c0.947,0.111,1.886,0.239,2.842,0.324c2.321,0.205,4.651,0.333,6.989,0.35c0.222,0,0.435,0.034,0.657,0.034
				c0.222,0,0.435-0.034,0.657-0.034c2.338-0.017,4.668-0.145,6.989-0.35c0.956-0.085,1.894-0.213,2.842-0.324
				c1.604-0.205,3.209-0.444,4.804-0.742c1.024-0.188,2.048-0.367,3.063-0.589c1.502-0.333,2.987-0.742,4.471-1.152
				c0.922-0.256,1.86-0.461,2.773-0.742V413.864z M401.067,362.664c-4.719,0-8.533-3.814-8.533-8.533
				c0-4.719,3.814-8.533,8.533-8.533c18.825,0,34.133-15.309,34.133-34.133c0-4.719,3.814-8.533,8.533-8.533
				c4.719,0,8.533,3.814,8.533,8.533C452.267,339.701,429.303,362.664,401.067,362.664z M494.933,405.331h-51.2v-20.079
				c25.464-14.788,42.667-42.291,42.667-73.788c0-47.053-38.281-85.333-85.333-85.333s-85.333,38.281-85.333,85.333
				c0,31.497,17.203,58.999,42.667,73.788v20.079H17.067v-358.4h477.867V405.331z"/>
			<path d="M42.667,354.131c14.114,0,25.6,11.486,25.6,25.6c0,4.719,3.814,8.533,8.533,8.533h256.76
				c-21.342-18.782-34.893-46.208-34.893-76.8c0-41.958,25.387-78.063,61.594-93.867l40.806-8.533
				c30.592,0,58.018,13.551,76.8,34.893V106.664c0-4.719-3.814-8.533-8.533-8.533c-14.114,0-25.6-11.486-25.6-25.6
				c0-4.719-3.814-8.533-8.533-8.533H76.8c-4.719,0-8.533,3.814-8.533,8.533c0,14.114-11.486,25.6-25.6,25.6
				c-4.719,0-8.533,3.814-8.533,8.533v238.933C34.133,350.316,37.948,354.131,42.667,354.131z M290.133,302.931h-68.267
				c-4.719,0-8.533-3.814-8.533-8.533s3.814-8.533,8.533-8.533h68.267c4.719,0,8.533,3.814,8.533,8.533
				S294.852,302.931,290.133,302.931z M290.133,260.264H170.667c-4.719,0-8.533-3.814-8.533-8.533s3.814-8.533,8.533-8.533h119.467
				c4.719,0,8.533,3.814,8.533,8.533S294.852,260.264,290.133,260.264z M204.8,115.197h102.4c4.719,0,8.533,3.814,8.533,8.533
				c0,4.719-3.814,8.533-8.533,8.533H204.8c-4.719,0-8.533-3.814-8.533-8.533C196.267,119.012,200.081,115.197,204.8,115.197z
				 M119.467,157.864h273.067c4.719,0,8.533,3.814,8.533,8.533s-3.814,8.533-8.533,8.533H119.467c-4.719,0-8.533-3.814-8.533-8.533
				S114.748,157.864,119.467,157.864z M119.467,243.197h17.067c4.719,0,8.533,3.814,8.533,8.533s-3.814,8.533-8.533,8.533h-17.067
				c-4.719,0-8.533-3.814-8.533-8.533S114.748,243.197,119.467,243.197z M119.467,285.864h68.267c4.719,0,8.533,3.814,8.533,8.533
				s-3.814,8.533-8.533,8.533h-68.267c-4.719,0-8.533-3.814-8.533-8.533S114.748,285.864,119.467,285.864z"/>
		</g>
	</g>
</g>
</svg>